<?xml version="1.0" ?><svg id="Layer_1" style="enable-background:new 0 0 64 64;" version="1.1" viewBox="0 0 64 64" xml:space="preserve" xmlns="http://www.w3.org/2000/svg" xmlns:xlink="http://www.w3.org/1999/xlink"><style type="text/css">
	.st0{fill:#698CB2;}
	.st1{fill:#D7E0EF;}
	.st2{fill:#F2F5F9;}
	.st3{fill:#A5BADB;}
	.st4{fill:#F9CB5D;}
	.st5{fill:#EDB340;}
	.st6{fill:#3693CF;}
	.st7{fill:#D53E7A;}
	.st8{fill:#DF5B90;}
	.st9{fill:#F769A3;}
	.st10{fill:#F74D8B;}
	.st11{fill:#FFFFFF;}
</style><g><rect class="st0" height="34" width="48" x="8" y="15"/><path class="st1" d="M10.6,16h42.7c0.9,0,1.6,0.7,1.6,1.6v27.7c0,0.9-0.7,1.6-1.6,1.6H10.6C9.7,47,9,46.3,9,45.4V17.6   C9,16.7,9.7,16,10.6,16z"/><polygon class="st2" points="24,46.9 31,46.9 52.9,16 46.9,16  "/><path class="st0" d="M56,48l6,6c0,4.4-3.6,8-8,8H10c-4.4,0-8-3.6-8-8l0,0l6-6H56z"/><polygon class="st3" points="2,54 62,54 62,54 56,48 8,48  "/><polygon class="st2" points="11,46.9 34,15.9 40,15.9 18,46.9  "/><polygon class="st2" points="45.7,46.9 54.9,33.9 54.9,29.6 42.1,46.9  "/><polygon class="st2" points="9,34.3 22,16 19,16 9,29.5  "/><rect class="st4" height="13" width="18" x="23" y="9"/><path class="st5" d="M23,9v5c1.7,0,3-1.3,3-3c0,1.7,1.3,3,3,3s3-1.3,3-3c0,1.7,1.3,3,3,3s3-1.3,3-3c0,1.7,1.3,3,3,3V9H23z"/><rect class="st6" height="6" width="4" x="30" y="16"/><path class="st7" d="M20,9V8l3-6h18l3,6v1c0,1.7-1.3,3-3,3s-3-1.3-3-3c0,1.7-1.3,3-3,3s-3-1.3-3-3c0,1.7-1.3,3-3,3s-3-1.3-3-3   c0,1.7-1.3,3-3,3S20,10.7,20,9z"/><polygon class="st8" points="38,8 36,2 41,2 44,8  "/><polygon class="st9" points="38,8 32,8 32,2 36,2  "/><polygon class="st9" points="26,8 28,2 23,2 20,8  "/><path class="st10" d="M32,8h6v1c0,1.7-1.3,3-3,3l0,0c-1.7,0-3-1.3-3-3V8z"/><path class="st10" d="M20,8h6v1c0,1.7-1.3,3-3,3l0,0c-1.7,0-3-1.3-3-3V8z"/><polygon class="st1" points="43,54 41,58 23,58 21,54  "/><polygon class="st8" points="32,8 26,8 28,2 32,2  "/><path class="st11" d="M47,30H17c-2.8,0-5,2.2-5,5l0,0c0,2.8,2.2,5,5,5h30c2.8,0,5-2.2,5-5l0,0C52,32.2,49.8,30,47,30z"/><polygon class="st0" points="19.3,32.3 18,33.6 16.7,32.3 15.3,33.7 16.6,35 15.3,36.3 16.7,37.7 18,36.4 19.3,37.7 20.7,36.3    19.4,35 20.7,33.7  "/><polygon class="st0" points="26.3,32.3 25,33.6 23.7,32.3 22.3,33.7 23.6,35 22.3,36.3 23.7,37.7 25,36.4 26.3,37.7 27.7,36.3    26.4,35 27.7,33.7  "/><polygon class="st0" points="33.3,32.3 32,33.6 30.7,32.3 29.3,33.7 30.6,35 29.3,36.3 30.7,37.7 32,36.4 33.3,37.7 34.7,36.3    33.4,35 34.7,33.7  "/><polygon class="st0" points="40.3,32.3 39,33.6 37.7,32.3 36.3,33.7 37.6,35 36.3,36.3 37.7,37.7 39,36.4 40.3,37.7 41.7,36.3    40.4,35 41.7,33.7  "/><polygon class="st0" points="48.7,33.7 47.3,32.3 46,33.6 44.7,32.3 43.3,33.7 44.6,35 43.3,36.3 44.7,37.7 46,36.4 47.3,37.7    48.7,36.3 47.4,35  "/></g><g><path d="M62.7,53.3L57,47.6V15c0-0.6-0.4-1-1-1H42v-1.1c1.7-0.4,3-2,3-3.9V8c0-0.2,0-0.3-0.1-0.4l-3-6C41.7,1.2,41.4,1,41,1H23   c-0.4,0-0.7,0.2-0.9,0.6l-3,6C19,7.7,19,7.8,19,8v1c0,1.9,1.3,3.4,3,3.9V14H8c-0.6,0-1,0.4-1,1v32.6l-5.7,5.7C1.1,53.5,1,53.7,1,54   c0,5,4,9,9,9h44c5,0,9-4,9-9C63,53.7,62.9,53.5,62.7,53.3z M33,21h-2v-4h2V21z M34,15h-4c-0.6,0-1,0.4-1,1v5h-5v-8.1   c0.8-0.2,1.5-0.6,2-1.2c0.7,0.8,1.8,1.4,3,1.4s2.3-0.5,3-1.4c0.7,0.8,1.8,1.4,3,1.4s2.3-0.5,3-1.4c0.5,0.6,1.2,1,2,1.2V21h-5v-5   C35,15.4,34.6,15,34,15z M33,7V3h2.3l1.3,4H33z M37,9c0,1.1-0.9,2-2,2s-2-0.9-2-2H37z M31,7h-3.6l1.3-4H31V7z M31,9   c0,1.1-0.9,2-2,2s-2-0.9-2-2H31z M41,11c-1.1,0-2-0.9-2-2h4C43,10.1,42.1,11,41,11z M42.4,7h-3.7l-1.3-4h3L42.4,7z M23.6,3h3   l-1.3,4h-3.7L23.6,3z M21,9h4c0,1.1-0.9,2-2,2S21,10.1,21,9z M22,16v6c0,0.6,0.4,1,1,1h18c0.6,0,1-0.4,1-1v-6h13v31H9V16H22z    M8.4,49h47.2l4,4H4.4L8.4,49z M41.4,55l-1,2H23.6l-1-2H41.4z M54,61H10c-3.5,0-6.4-2.6-6.9-6h17.3l1.7,3.4   c0.2,0.3,0.5,0.6,0.9,0.6h18c0.4,0,0.7-0.2,0.9-0.6l1.7-3.4h17.3C60.4,58.4,57.5,61,54,61z"/><path d="M17,41h30c3.3,0,6-2.7,6-6s-2.7-6-6-6H17c-3.3,0-6,2.7-6,6S13.7,41,17,41z M17,31h30c2.2,0,4,1.8,4,4c0,2.2-1.8,4-4,4H17   c-2.2,0-4-1.8-4-4C13,32.8,14.8,31,17,31z"/><polygon points="16.7,37.7 18,36.4 19.3,37.7 20.7,36.3 19.4,35 20.7,33.7 19.3,32.3 18,33.6 16.7,32.3 15.3,33.7 16.6,35    15.3,36.3  "/><polygon points="23.7,37.7 25,36.4 26.3,37.7 27.7,36.3 26.4,35 27.7,33.7 26.3,32.3 25,33.6 23.7,32.3 22.3,33.7 23.6,35    22.3,36.3  "/><polygon points="30.7,37.7 32,36.4 33.3,37.7 34.7,36.3 33.4,35 34.7,33.7 33.3,32.3 32,33.6 30.7,32.3 29.3,33.7 30.6,35    29.3,36.3  "/><polygon points="37.7,37.7 39,36.4 40.3,37.7 41.7,36.3 40.4,35 41.7,33.7 40.3,32.3 39,33.6 37.7,32.3 36.3,33.7 37.6,35    36.3,36.3  "/><polygon points="44.7,37.7 46,36.4 47.3,37.7 48.7,36.3 47.4,35 48.7,33.7 47.3,32.3 46,33.6 44.7,32.3 43.3,33.7 44.6,35    43.3,36.3  "/></g></svg>